<?xml version="1.0" encoding="utf-8"?>
<!-- Generator: Adobe Illustrator 25.2.1, SVG Export Plug-In . SVG Version: 6.00 Build 0)  -->
<svg version="1.1" xmlns="http://www.w3.org/2000/svg" xmlns:xlink="http://www.w3.org/1999/xlink" x="0px" y="0px"
	 viewBox="0 0 500 500" style="enable-background:new 0 0 500 500;" xml:space="preserve">
<style type="text/css">
	.st0{display:none;}
	.st1{fill:#193150;}
	.st2{fill:#FFFFFF;}
</style>
<g id="Layer_1" class="st0">
	
		<image style="display:inline;overflow:visible;opacity:0.5;" width="280" height="218" xlink:href="27D01927.jpg"  transform="matrix(1.4602 0 0 1.4602 49.2857 85.5714)">
	</image>
</g>
<g id="Layer_2">
</g>
<g id="Layer_3">
	<g>
		<path class="st1" d="M127.5,156.1c-13.5,6.9-23.7,19.7-27.5,34.4c-5.2,20.4,2.4,42.6,16.4,58.3s33.8,25.2,54.2,30.4
			c14,3.5,28.3,5.2,42.6,6.2c13.1,0.9,26,2.6,39.1,2.1c28.2-1,56.3-6.2,82.9-15.6c21.4-7.5,42.6-18.4,56.1-36.6
			c11.7-15.9,14.7-36.8,7.2-55.2c-7.3-18.1-21.7-25.7-37.3-35.1c20.8,4.9,40.5,18.2,53.6,34.9c15.7,20.2,16.5,45.7,5.8,68.7
			c-7.8,16.9-21.6,30.3-38.2,38.6c-8.2,4.1-15.4,9.5-24,12.9c-24.4,9.8-50.6,13.5-76.5,16.6c-2.5,0.3-5,0.6-7.5,0.9
			c-1,11.2,1.7,22.4,3.1,33.6c1.4,11.2,1.3,23.3-4.8,32.8c-5.3,8.3-15.1,13.7-25,13.6c-9.9-0.1-19.6-5.6-24.7-14.1
			c-5.4-8.9-5.5-20-4.2-30.3c1.5-11.3,2.9-22.5,4.1-33.8c-0.2,1.6-40.3-5.1-44-5.9c-15.1-3.2-30-7.7-44.4-13.3
			c-22.9-8.9-44.4-27.9-53-51.2c-11.9-32.1-0.9-70.5,30.1-87.2C117.1,159.1,121.8,157.5,127.5,156.1
			C127.5,156.1,127.5,156.1,127.5,156.1z"/>
		<path class="st1" d="M176.4,143c-0.3-0.2-0.7-0.4-1.2-0.6c-2.9-0.8-7.1,0.7-9.8,1.6c-6.4,2.2-12.5,6.3-17,11.3
			c-7.2,7.9-11,18.8-10.3,29.5c0.5,7,2.9,13.8,6.9,19.6c1,1.4,2,2.8,3.2,4.1c0.9,1,4.1,2.7,3.9,4.3c-0.2,1.7-5.6,4.1-7,5.1
			c-5,3.6-9.6,7.6-13.7,12.1c-1.4,1.5-2.8,3.2-3.2,5.2c-0.8,4.5,6.9,8.1,9.9,10.4c3.3,2.5,6.4,5.2,9.5,8c1.9,1.8,5.3,6.8,8.4,5.1
			c2.4-1.3,1.9-5.4,2.1-7.7c0.3-3.5,0.9-6.9,1.7-10.3c3.5-13.5,11.6-25.8,22.8-34c0.1-0.1,0.2-0.2,0.3-0.2c2.4-1.7,5.2-3.6,5.6-6.6
			c0.4-2.4-0.9-4.6-2.1-6.7c-7.2-13.1-10.6-28.3-9.6-43.2C177.1,147.7,178.2,144.5,176.4,143z"/>
		<ellipse class="st1" cx="247.8" cy="159.8" rx="52.1" ry="51.5"/>
		<path class="st1" d="M204.4,187.8c0,0,7.3,11.8,10.8,14.7c0.7,3,0.3,4,0.3,4s-34,13-38.8,45.1c-0.3,4.5-0.3,15.6-0.3,15.6
			s25.9,10.1,61.2,10.9c7.6,0,53.7,3.6,83.3-14.1c0.1-7.5-0.7-14.1-0.7-14.1s-10.4-34.7-38.3-43.2c-7.2,0.3-8.1,0.4-5.6-12.5"/>
		<path class="st1" d="M285.6,208.6c0.1,0.1-2.1-0.1-2.5-0.7c-1.6-2.1,0.7-7.6,1.4-9.6c2.3-7.1,6.9-13.5,8.5-20.9
			c1.4-6.3-5.3-1.2-7.5,0.5c-5.7,4.4-11,9.6-16,14.9l7.3,30l13-6.6C289.7,216,285.6,208.6,285.6,208.6z"/>
		<g>
			<g>
				<path class="st1" d="M283.7,189.6c-4,7.3-8,14.5-12,21.8c-0.9,1.7,1.7,3.2,2.6,1.5c4-7.3,8-14.5,12-21.8
					C287.2,189.5,284.6,188,283.7,189.6L283.7,189.6z"/>
			</g>
		</g>
		<g>
			<g>
				<path class="st1" d="M290.9,178.5c-1,4.2-3.6,7.7-6.1,11.1c-1.4,1.8-2.7,3.7-4.1,5.5c-1.3,1.8-2.7,3.6-4.4,5.1
					c-1.5,1.2,0.6,3.3,2.1,2.1c1.8-1.5,3.1-3.3,4.5-5.2c1.5-2,3-4,4.4-6c2.7-3.6,5.3-7.3,6.4-11.8
					C294.2,177.4,291.4,176.6,290.9,178.5L290.9,178.5z"/>
			</g>
		</g>
		<g>
			<g>
				<path class="st1" d="M291.1,180c-0.5,4.4-3.2,8.2-5.8,11.6c-2.6,3.4-5.5,6.7-9.3,8.8c-1.7,1-0.2,3.6,1.5,2.6
					c4.2-2.4,7.5-6.1,10.4-9.9c3-3.9,5.7-8.1,6.2-13.1c0.1-0.8-0.8-1.5-1.5-1.5C291.7,178.5,291.2,179.2,291.1,180L291.1,180z"/>
			</g>
		</g>
		<g>
			<g>
				<path class="st1" d="M295,170.7c-3.3,2.3-2.5,6.6-4,9.9c-1.4,3.3-3.6,6.1-4.4,9.7c-0.4,1.9,2.5,2.7,2.9,0.8
					c0.6-3.2,2.6-5.8,3.9-8.7c0.7-1.5,1.2-3,1.4-4.7c0.2-1.4,0.3-3.5,1.6-4.4C298.1,172.2,296.6,169.6,295,170.7L295,170.7z"/>
			</g>
		</g>
		<g>
			<g>
				<path class="st1" d="M281.7,197.5c1.9,0,1.9-3,0-3C279.8,194.5,279.8,197.5,281.7,197.5L281.7,197.5z"/>
			</g>
		</g>
		<g>
			<g>
				<path class="st1" d="M281.7,205.9c0.2-2.4,0.4-4.8,1.5-7c1.2-2.2,2.6-4,3.4-6.5c1.7-5.1,2.9-10.3,4-15.5
					c0.4-1.9-2.5-2.7-2.9-0.8c-1.1,5.3-2.3,10.8-4.1,16c-0.8,2.4-2.6,4.2-3.5,6.5c-1,2.3-1.2,4.9-1.4,7.3
					C278.5,207.9,281.5,207.9,281.7,205.9L281.7,205.9z"/>
			</g>
		</g>
		<g>
			<g>
				<path class="st1" d="M287.3,189.8c-0.6,1.5-1.2,3-2.4,4.1c-1.2,1.2-2.5,2.2-3.6,3.4c-2.2,2.4-4,5.2-5.3,8.2
					c-0.3,0.7-0.2,1.6,0.5,2.1c0.6,0.4,1.7,0.2,2.1-0.5c1.3-3,3.1-5.8,5.4-8.2c1.1-1.2,2.5-2.2,3.6-3.4c1.2-1.4,1.9-3.1,2.5-4.8
					c0.3-0.8-0.3-1.6-1-1.8C288.3,188.5,287.6,189,287.3,189.8L287.3,189.8z"/>
			</g>
		</g>
		<g>
			<g>
				<path class="st1" d="M292.8,184c0.8-1.7,1.8-3,2.9-4.4c1.2-1.5,1.6-3.3,2-5.2c0.9-4,1.3-8,1.4-12.1c0-1.9-3-1.9-3,0
					c-0.1,3.8-0.5,7.6-1.3,11.3c-0.2,0.9-0.4,1.8-0.7,2.7c-0.2,0.8-0.6,1.2-1.1,1.8c-1.1,1.3-2.1,2.8-2.8,4.4
					C289.4,184.3,292,185.8,292.8,184L292.8,184z"/>
			</g>
		</g>
		<path class="st1" d="M320,143.5c0.7-1.5,2.5-1.8,5.3-1.6c4.2,0.3,8.2,1.4,12,3.1c7.5,3.3,13.9,9.1,17.8,16.3
			c4.2,7.9,5.6,17.8,3.3,26.5c-1,4-2.8,7.3-5.3,10.6c-2.3,3.1-5,6.3-5.3,10.3c-0.2,3.5,1.6,7,4,9.5c1.9,1.9,24.4,16.4,15.5,20.4
			c-9.7,4.4-17.1,10.9-24.7,18.2c-1.7-5.1-3.2-10.3-4.9-15.4c-2-5.7-4.2-11.3-7-16.6c-5.3-9.8-11.9-17.4-20-24.9
			c-0.5-0.5-1-1-1.1-1.6c-0.1-0.6,0.2-1.1,0.5-1.6c4.1-7.2,7.6-14.3,9.4-22.5c1.3-5.9,1.8-12.1,1.5-18.1c-0.2-3-0.5-6.1-1.1-9.1
			C319.6,145.6,319.6,144.4,320,143.5z"/>
		<path class="st2" d="M209.1,148.3c0,0,2,3.7,9.5,1.2c0-4,4.8-15.8,18.7-19.1c-0.1-3.1,1.4-13.4-12.9-4.6
			c-2.1,1.8-13.6,10.5-15,22.1"/>
		<path class="st2" d="M249.5,210.5c0,0-19.2,0-15.8,8.2c1.9,5.8,0.4,13.2,12.1,12.5c4.8-0.2,17.7,3.5,16.6-11.5
			C262.7,217.8,267.3,211.4,249.5,210.5z"/>
		<path class="st2" d="M242,233c0,0-4.5,6.7-3,44.3c2.8,0.2,21.8,0.2,21.8,0.2s-3.2-42.6-5-44.9C251.3,233,247.8,231,242,233z"/>
	</g>
</g>
</svg>
